<svg id="arvore" xmlns="http://www.w3.org/2000/svg" width="121.819" height="154.743" viewBox="0 0 121.819 154.743">
  <path id="Caminho_1987" data-name="Caminho 1987" d="M-864.489,37.871c-3.851,0-8.382,2.341-11.252,8.911s.018,12.8,2.19,16.991c1.057,2.04,5.74,6.948,8.383,6.8-3.4,1.888-4.531,5.966-3.625,8.08a7.73,7.73,0,0,0,6.57,4.23,7.161,7.161,0,0,0-1.964,4.984c-2.114-.905-6.417,1.284-7.551,3.625s-1.51,4.607,0,5.815c-4.155.83-5.287,5.362-5.363,7.628a5.584,5.584,0,0,0,2.719,4.984c-3.1,3.625-2.039,7.7,1.132,10.044s9.062,4.758,12.839,4.155a7.53,7.53,0,0,0,6.494-6.948c2.191,3.247,4.456,2.417,5.966,1.662a2.836,2.836,0,0,0,1.359-2.643s4.153,1.813,6.268,1.662,6.419-2.794,6.872-6.193a5.24,5.24,0,0,0-3.625-5.89,15.766,15.766,0,0,0,5.645-3.077c1.529-1.208,3.059-1.794,3.454-4.8a26.224,26.224,0,0,0,6.58,4.578c1.425.651,3.989,2.288,8.874.151,2.86,4.87,4.03,4.993,5.334,4.956s4.021-2.21,4.21-3.437c1.322,2.833,7.948,2.53,9.817,1.907s4.72-3.739,4.814-4.493c1.775,2.737,6.1,4.228,8.439,4.21s6.976-2.039,7.8-4.56a8.453,8.453,0,0,0,.142-4.7s2.35.623,3.625-.114,4.106-2.889,4.446-4.532c3.624,1.615,7.854-2.709,8.458-6.409s-.529-6.419-4-7.4c1.491-3.251-.69-4.965-2.3-5.474,1.076-5.608-2.775-10.686-9.459-10.347.586-5.267-3.719-11.517-6.136-12.384a21.688,21.688,0,0,0-6.306-1.095c6.382-4.532,1.775-14.991-6.608-12.915,3.361-1.925,10.157-8.57,8.062-14.234s-9.573-12.687-15.69-12.687-9.4,3.455-11.5,7.477c0,0-6.683-2.549-10.7.114-1.473-9.629-10.931-11.214-13.536-11.1S-844.1,5.85-847.043,17.48c-6.041-9.666-13.82-3.1-11.177,5.815a9.3,9.3,0,0,0-9.137,7.25C-867.915,34.594-864.489,37.871-864.489,37.871Z" transform="translate(877.103 -5.392)" fill="#ffb81a"/>
  <path id="Caminho_1988" data-name="Caminho 1988" d="M-809.41,94.867a53.15,53.15,0,0,0-13.685,10.17l-.289-20.479h-3.965l-.539,28.6a43.877,43.877,0,0,0-9.09-8.553s-3.965,2.152,0,3.738c2.669,1.068,6.669,6.289,9,9.59l-.731,38.893h6.343l-.659-46.8c2.352-2.641,9.3-10.12,13.615-11.421C-804.149,97.019-809.41,94.867-809.41,94.867Z" transform="translate(878.705 -2.087)" fill="#ffb81a"/>
</svg>
