<svg xmlns="http://www.w3.org/2000/svg" width="203.954" height="399.009" viewBox="0 0 203.954 399.009">
  <g id="Celular2" transform="translate(-1673.825 -106.063)">
    <g id="Grupo_517" data-name="Grupo 517" transform="translate(1673.825 106.063)">
      <rect id="Retângulo_127" data-name="Retângulo 127" width="203.954" height="399.009" rx="16.52" fill="#304057"/>
      <rect id="Retângulo_128" data-name="Retângulo 128" width="183.914" height="354.083" rx="6.805" transform="translate(10.227 19.312)" fill="#da5f5a"/>
      <circle id="Elipse_12" data-name="Elipse 12" cx="4.376" cy="4.376" r="4.376" transform="translate(97.601 6.148)" fill="#72809a"/>
      <rect id="Retângulo_129" data-name="Retângulo 129" width="57.455" height="8.208" rx="2.043" transform="translate(72.379 385.127)" fill="#455366"/>
    </g>
    <path id="Retângulo_130" data-name="Retângulo 130" d="M0,0H183.914a0,0,0,0,1,0,0V112.2a6.374,6.374,0,0,1-6.374,6.374H6.374A6.374,6.374,0,0,1,0,112.2V0A0,0,0,0,1,0,0Z" transform="translate(1684.052 360.888)" fill="#d34f4f"/>
    <g id="Grupo_518" data-name="Grupo 518" transform="translate(1713.893 180.377)">
      <path id="Caminho_1934" data-name="Caminho 1934" d="M1732.438,200.156l-11.754,32.417h23.508Z" transform="translate(-1715.103 -182.808)" fill="#ffb81a"/>
      <path id="Caminho_1935" data-name="Caminho 1935" d="M1745.545,233.472h-26.287l13.143-36.249Zm-23.508-1.948h20.729L1732.4,202.938Z" transform="translate(-1715.066 -182.732)" fill="#fdd16e"/>
      <path id="União_1" data-name="União 1" d="M0,127.016V25.2H25.923L61.87,0,97.817,25.2h26.089V127.016Z" transform="translate(4.415 61.87)" fill="#ffb81a" stroke="rgba(0,0,0,0)" stroke-miterlimit="10" stroke-width="1"/>
      <rect id="Retângulo_132" data-name="Retângulo 132" width="26.006" height="139.12" transform="translate(4.332 49.766)" fill="#ffb81a"/>
      <path id="Caminho_1937" data-name="Caminho 1937" d="M1746.357,373.5H1718.4V232.433h27.955Zm-26.006-1.948h24.058V234.381H1720.35Z" transform="translate(-1715.044 -183.641)" fill="#fdd16e"/>
      <rect id="Retângulo_133" data-name="Retângulo 133" width="26.006" height="139.12" transform="translate(102.232 49.766)" fill="#ffb81a"/>
      <path id="Caminho_1938" data-name="Caminho 1938" d="M1846.853,373.5H1818.9V232.433h27.956Zm-26.007-1.948H1844.9V234.381h-24.059Z" transform="translate(-1717.64 -183.641)" fill="#fdd16e"/>
      <rect id="Retângulo_134" data-name="Retângulo 134" width="71.894" height="1.948" transform="translate(30.338 131.513)" fill="#fdd06c"/>
      <rect id="Retângulo_135" data-name="Retângulo 135" width="71.894" height="1.948" transform="translate(30.338 187.912)" fill="#fdd06c"/>
      <path id="Caminho_1939" data-name="Caminho 1939" d="M1795.35,375.169H1793.4v-38.49h-22.924v38.49h-1.948V334.73h26.821Z" transform="translate(-1716.339 -186.283)" fill="#fdd06c"/>
      <path id="Caminho_1940" data-name="Caminho 1940" d="M1768.816,316.915h-1.948V294.858H1754.3v22.058h-1.948V292.909h16.464Z" transform="translate(-1715.921 -185.203)" fill="#fdd06c"/>
      <path id="Caminho_1941" data-name="Caminho 1941" d="M1739.078,271.57h-1.948V251.4h-9.105V271.57h-1.948V249.454h13Z" transform="translate(-1715.242 -184.081)" fill="#fdd06c"/>
      <path id="Caminho_1942" data-name="Caminho 1942" d="M1839.574,271.57h-1.948V251.4h-9.105V271.57h-1.948V249.454h13Z" transform="translate(-1717.838 -184.081)" fill="#fdd06c"/>
      <path id="Caminho_1943" data-name="Caminho 1943" d="M1790.309,316.915h-1.948V294.858h-12.567v22.058h-1.948V292.909h16.464Z" transform="translate(-1716.476 -185.203)" fill="#fdd06c"/>
      <path id="Caminho_1944" data-name="Caminho 1944" d="M1811.8,316.915h-1.948V294.858h-12.567v22.058h-1.948V292.909H1811.8Z" transform="translate(-1717.031 -185.203)" fill="#fdd06c"/>
      <line id="Linha_14" data-name="Linha 14" y2="17.908" transform="translate(17.335)" fill="#fab712"/>
      <rect id="Retângulo_136" data-name="Retângulo 136" width="0.974" height="17.908" transform="translate(16.848 0)" fill="#fdd16e"/>
      <line id="Linha_15" data-name="Linha 15" x2="11.13" transform="translate(11.77 4.228)" fill="#fab712"/>
      <rect id="Retângulo_137" data-name="Retângulo 137" width="11.131" height="0.974" transform="translate(11.77 3.741)" fill="#fdd16e"/>
      <path id="Caminho_1945" data-name="Caminho 1945" d="M1832.934,200.156l-11.754,32.417h23.508Z" transform="translate(-1717.698 -182.808)" fill="#ffb81a"/>
      <path id="Caminho_1946" data-name="Caminho 1946" d="M1846.04,233.472h-26.287l13.143-36.249Zm-23.508-1.948h20.729L1832.9,202.938Z" transform="translate(-1717.662 -182.732)" fill="#fdd16e"/>
      <line id="Linha_16" data-name="Linha 16" y2="17.908" transform="translate(115.235)" fill="#fab712"/>
      <rect id="Retângulo_138" data-name="Retângulo 138" width="0.974" height="17.908" transform="translate(114.748 0)" fill="#fdd16e"/>
      <line id="Linha_17" data-name="Linha 17" x2="11.13" transform="translate(109.67 4.228)" fill="#fab712"/>
      <rect id="Retângulo_139" data-name="Retângulo 139" width="11.13" height="0.974" transform="translate(109.67 3.741)" fill="#fdd16e"/>
      <rect id="Retângulo_140" data-name="Retângulo 140" width="29.364" height="10.446" transform="translate(0.974 178.895)" fill="#ffb81a"/>
      <rect id="Retângulo_141" data-name="Retângulo 141" width="29.364" height="10.446" transform="translate(102.232 178.895)" fill="#ffb81a"/>
      <path id="Caminho_1947" data-name="Caminho 1947" d="M1850.21,377.38H1818.9v-12.4h31.313Zm-29.365-1.948h27.416v-8.5h-27.416Z" transform="translate(-1717.64 -187.065)" fill="#fdd16e"/>
      <path id="Caminho_1948" data-name="Caminho 1948" d="M1732.25,204.853l9.718,26.822h1.133l-10.364-28.585Z" transform="translate(-1715.402 -182.883)" fill="#dc9a09"/>
      <path id="Caminho_1949" data-name="Caminho 1949" d="M1832.745,204.853l9.718,26.822h1.133l-10.364-28.585Z" transform="translate(-1717.997 -182.883)" fill="#dc9a09"/>
      <rect id="Retângulo_142" data-name="Retângulo 142" width="1.16" height="35.36" transform="translate(28.204 50.74)" fill="#dc9a09"/>
      <rect id="Retângulo_143" data-name="Retângulo 143" width="1.16" height="8.498" transform="translate(129.462 179.869)" fill="#dc9a09"/>
      <rect id="Retângulo_144" data-name="Retângulo 144" width="1.16" height="37.516" transform="translate(75.898 150.396)" fill="#dc9a09"/>
      <rect id="Retângulo_145" data-name="Retângulo 145" width="1.16" height="21.859" transform="translate(91.692 109.654)" fill="#dc9a09"/>
      <rect id="Retângulo_146" data-name="Retângulo 146" width="1.16" height="21.859" transform="translate(70.737 109.654)" fill="#dc9a09"/>
      <rect id="Retângulo_147" data-name="Retângulo 147" width="1.16" height="18.799" transform="translate(20.728 67.301)" fill="#dc9a09"/>
      <rect id="Retângulo_148" data-name="Retângulo 148" width="1.16" height="18.799" transform="translate(118.626 67.315)" fill="#dc9a09"/>
      <rect id="Retângulo_149" data-name="Retângulo 149" width="1.16" height="100.319" transform="translate(28.204 88.049)" fill="#dc9a09"/>
      <rect id="Retângulo_150" data-name="Retângulo 150" width="1.16" height="127.181" transform="translate(126.105 50.74)" fill="#dc9a09"/>
      <rect id="Retângulo_151" data-name="Retângulo 151" width="1.16" height="102.206" transform="translate(100.098 85.705)" fill="#dc9a09"/>
      <path id="Caminho_1950" data-name="Caminho 1950" d="M1746.268,377.38h-31.313v-12.4h31.313Zm-29.365-1.948h27.416v-8.5H1716.9Z" transform="translate(-1714.955 -187.065)" fill="#fdd16e"/>
      <rect id="Retângulo_152" data-name="Retângulo 152" width="1.16" height="21.859" transform="translate(49.844 109.654)" fill="#dc9a09"/>
      <path id="Caminho_1951" data-name="Caminho 1951" d="M1843.309,272h-26.314l-35.639-24.988L1745.715,272H1719.4v-1.948h25.7l36.255-25.42,36.254,25.42h25.7Z" transform="translate(-1715.07 -183.956)" fill="#fdd06c"/>
      <path id="Caminho_1952" data-name="Caminho 1952" d="M1782.181,247.638l34.608,24.43v-1.281l-33.812-23.707Z" transform="translate(-1716.691 -184.019)" fill="#dc9a09"/>
      <path id="Caminho_1953" data-name="Caminho 1953" d="M1781.552,267.906c1.444-.073,3.061.02,3.952,1.377a4.04,4.04,0,0,1,.1,3.545,3.969,3.969,0,0,1-2.421,1.692c-1.081.152.245.795.245.795l2.737-1.14,1.077-3.358-1.43-2.819-2.771-1.057Z" transform="translate(-1716.675 -184.532)" fill="#dc9a09"/>
      <path id="Caminho_1954" data-name="Caminho 1954" d="M1782.855,276.443a5.41,5.41,0,1,1,5.41-5.409A5.416,5.416,0,0,1,1782.855,276.443Zm0-8.871a3.461,3.461,0,1,0,3.461,3.462A3.466,3.466,0,0,0,1782.855,267.572Z" transform="translate(-1716.569 -184.498)" fill="#fdd06c"/>
      <rect id="Retângulo_153" data-name="Retângulo 153" width="24.057" height="0.641" transform="translate(5.307 50.74)" fill="#dc9a09"/>
      <rect id="Retângulo_154" data-name="Retângulo 154" width="9.105" height="0.641" transform="translate(12.782 67.301)" fill="#dc9a09"/>
      <rect id="Retângulo_155" data-name="Retângulo 155" width="12.626" height="0.641" transform="translate(38.378 109.639)" fill="#dc9a09"/>
      <rect id="Retângulo_156" data-name="Retângulo 156" width="12.608" height="0.641" transform="translate(59.288 109.639)" fill="#dc9a09"/>
      <rect id="Retângulo_157" data-name="Retângulo 157" width="22.93" height="0.641" transform="translate(54.127 150.394)" fill="#dc9a09"/>
      <rect id="Retângulo_158" data-name="Retângulo 158" width="27.416" height="0.641" transform="translate(1.948 179.869)" fill="#dc9a09"/>
      <rect id="Retângulo_159" data-name="Retângulo 159" width="27.416" height="0.641" transform="translate(103.206 179.869)" fill="#dc9a09"/>
      <rect id="Retângulo_160" data-name="Retângulo 160" width="24.058" height="0.641" transform="translate(103.206 88.049)" fill="#dc9a09"/>
      <rect id="Retângulo_161" data-name="Retângulo 161" width="24.058" height="0.641" transform="translate(5.307 88.049)" fill="#dc9a09"/>
      <rect id="Retângulo_162" data-name="Retângulo 162" width="12.597" height="0.641" transform="translate(80.255 109.639)" fill="#dc9a09"/>
      <rect id="Retângulo_163" data-name="Retângulo 163" width="9.105" height="0.641" transform="translate(110.682 67.301)" fill="#dc9a09"/>
    </g>
  </g>
</svg>
