<svg xmlns="http://www.w3.org/2000/svg" width="46.956" height="42.23" viewBox="0 0 46.956 42.23">
  <path id="ciclista" d="M-2723.727-1380.368a8.161,8.161,0,0,0-5.808-2.406,8.153,8.153,0,0,0-5.348,1.979l-3.2-3.37.214-.713a.175.175,0,0,0,.206-.129.174.174,0,0,0-.106-.2l.443-1.473c1.33-.062,3.139-.243,3.053-.686a1.8,1.8,0,0,0-.835-1.067,5.361,5.361,0,0,0,.438-1.958,6.408,6.408,0,0,0-.169-1.77,5.3,5.3,0,0,0-.222-.934.366.366,0,0,0-.047-.13s-.835-2.577-1.07-3.169a15.339,15.339,0,0,1-.873-3.359c-.263-1.689-.159-2.308-.45-2.6s-.929-.882-.929-.882a.523.523,0,0,0,.45-.206c.131-.225.319-.206.31-.366s-.066-.366-.075-.554-.278-.457-.26-.569-.1-.266-.094-.307.091-.125.078-.188a1.544,1.544,0,0,0-.156-.283.7.7,0,0,1-.113-.361c0-.122.01-.3,0-.427a4.412,4.412,0,0,0-.5-1.089,8.808,8.808,0,0,0-.9-.906,4.183,4.183,0,0,0-1.032-.081,14.3,14.3,0,0,0-2,.081,1.319,1.319,0,0,0-.726.569,1.179,1.179,0,0,0-.075.344,5.077,5.077,0,0,0-.144.713c-.006.275.137.669.075.876s-.463.626-.457.776.338.394.369.494-.025,1.12.182,1.157,1.345-.069,1.407-.031.644.476.657.669.213.632.113.87-.757,1.176-.669,1.67a9.907,9.907,0,0,0,.282,1.095s-.864,1.7-1.014,1.883a41.21,41.21,0,0,1-4.191.851c-1.452.288-4.029.45-4.179.6a.779.779,0,0,0-.093.372,1.862,1.862,0,0,0-.538.012,14.972,14.972,0,0,0-2.12,1.34.61.61,0,0,0-.051.676.5.5,0,0,0-.064.244.524.524,0,0,0,.24.434,5.1,5.1,0,0,1,.862,1.186,11.807,11.807,0,0,1-.456,1.8l-.155-.05a.284.284,0,0,0-.357.184.281.281,0,0,0,.022.222l-.268-.034h0l-6.942-.976-.033.222.268.038c-.075.8-.4,4.625.153,5.109a9.655,9.655,0,0,0,3,.8,6.89,6.89,0,0,0,1.925.124c.479-.146,1.114-2.8,1.439-4.307h0l.409.084c-.135.727-.331,1.7-.5,2.217-.288.9-.366,1.811-.785,2.165a6.36,6.36,0,0,0-1.437,2.1,8.186,8.186,0,0,0-3.493-.775,8.16,8.16,0,0,0-5.808,2.406,8.16,8.16,0,0,0-2.406,5.808,8.16,8.16,0,0,0,2.406,5.808,8.16,8.16,0,0,0,5.808,2.406,8.16,8.16,0,0,0,5.808-2.406,8.159,8.159,0,0,0,2.406-5.808,8.159,8.159,0,0,0-2.406-5.808,8.369,8.369,0,0,0-.635-.573,8.209,8.209,0,0,0,.823-2.29,10.426,10.426,0,0,1,.341-1.771l9.027,10.07c.082.166.162.333.237.495a2.6,2.6,0,0,0-.183.96,2.616,2.616,0,0,0,.049.5,10.7,10.7,0,0,0-2.038.347c-1.342.4-1.483.488-1.483.826,0,.244,1.164.507,2.2.681l-.038.241a.206.206,0,0,0,.171.236l2.37.378a.206.206,0,0,0,.226-.133,3.635,3.635,0,0,0,1.055.408.46.46,0,0,0,.46-.432c-.028-.028.047-.075.065-.188.006-.034.013-.149.018-.3a2.583,2.583,0,0,0,.639-.2l.012.073,3.709-.632a8.192,8.192,0,0,0,1.883,2.913,8.16,8.16,0,0,0,5.808,2.406,8.161,8.161,0,0,0,5.808-2.406,8.161,8.161,0,0,0,2.406-5.808A8.161,8.161,0,0,0-2723.727-1380.368Zm-31.18-8.969a.886.886,0,0,0,.014-.119l.215.03c-.007.038-.01.078-.015.117-.01.073-.019.143-.113.133S-2754.927-1389.239-2754.907-1389.337Zm-.076.393c.016-.1.061-.135.147-.121s.1.061.087.146-.032.131-.117.119S-2755-1388.833-2754.983-1388.943Zm-5.482,2.006c-.071-.012-.111-.039-.1-.135.017-.118.09-.1.19-.107.068,0,.045.076.039.146C-2760.342-1386.934-2760.394-1386.925-2760.465-1386.937Zm.072.316c-.007.075-.069.067-.135.056-.085-.013-.092-.074-.08-.153.017-.113.085-.115.16-.1C-2760.355-1386.8-2760.381-1386.721-2760.393-1386.621Zm4.776-1.772c.07.01.12.033.114.128s-.053.122-.131.106-.112-.039-.094-.134C-2755.715-1388.365-2755.688-1388.4-2755.617-1388.393Zm-.049-.291c.016-.087.068-.083.126-.075.074.011.084.063.068.133s-.05.1-.115.091C-2755.675-1388.546-2755.681-1388.6-2755.666-1388.684Zm0,.663c.067.012.127.026.111.127s-.054.122-.131.108c-.058-.01-.109-.024-.1-.111S-2755.759-1388.036-2755.67-1388.02Zm-.08.607c-.083-.011-.1-.059-.085-.145s.051-.1.116-.09.121.036.1.132S-2755.676-1387.4-2755.75-1387.413Zm.077.283c-.006.112-.071.1-.143.087s-.087-.059-.076-.143c.014-.107.078-.09.141-.091C-2755.649-1387.278-2755.669-1387.2-2755.673-1387.13Zm-.124-1.554c-.01.1-.051.141-.131.125s-.084-.083-.073-.16.047-.105.116-.1S-2755.772-1388.76-2755.8-1388.684Zm-.142.241c.071.007.124.028.113.125s-.041.149-.134.14-.118-.057-.1-.156S-2756.015-1388.464-2755.939-1388.443Zm-.048.374c.077.007.116.043.1.136s-.08.124-.156.119-.085-.077-.076-.153C-2756.105-1388.062-2756.06-1388.088-2755.988-1388.07Zm-.053.372c.074.014.114.048.094.14-.012.119-.091.1-.159.1-.09,0-.064-.072-.06-.13C-2756.159-1387.678-2756.121-1387.712-2756.041-1387.7Zm-.086.607c-.073-.006-.11-.035-.1-.129s.05-.117.126-.1.11.051.1.122C-2756-1387.083-2756.06-1387.085-2756.126-1387.091Zm.076.281c-.013.1-.075.1-.14.089-.081-.008-.1-.055-.085-.141.016-.1.072-.1.138-.087S-2756.028-1386.9-2756.051-1386.81Zm-.108-1.528c-.014.084-.058.126-.133.105s-.059-.087-.051-.149.03-.118.1-.107S-2756.143-1388.417-2756.158-1388.338Zm-.124.224c.07.016.082.067.069.136s-.043.133-.124.12-.071-.077-.064-.139C-2756.392-1388.076-2756.369-1388.134-2756.282-1388.114Zm-.058.372c.073.015.082.069.07.139s-.034.123-.106.119c-.1,0-.081-.082-.072-.155S-2756.416-1387.758-2756.34-1387.742Zm-.082.63c-.068,0-.1-.037-.086-.115s0-.151.1-.144a.093.093,0,0,1,.095.116C-2756.323-1387.182-2756.337-1387.113-2756.422-1387.112Zm.048.248c-.012.082-.043.132-.122.123s-.076-.069-.067-.135.026-.14.116-.12C-2756.379-1386.982-2756.364-1386.937-2756.374-1386.865Zm-.063-1.539c-.013.1-.054.143-.145.131s-.1-.059-.091-.146.046-.131.126-.109C-2756.473-1388.528-2756.424-1388.5-2756.437-1388.4Zm-.177.242c.1,0,.133.045.119.137s-.062.136-.149.123-.087-.078-.081-.155C-2756.718-1388.156-2756.668-1388.176-2756.614-1388.161Zm-.038.369c.092.013.117.066.1.163s-.069.114-.141.1c-.087-.007-.092-.069-.082-.149S-2756.733-1387.8-2756.652-1387.793Zm-.089.635c-.073-.01-.119-.041-.1-.123s.023-.156.113-.141c.071.012.141.016.125.135C-2756.612-1387.186-2756.655-1387.145-2756.741-1387.157Zm.083.255c-.01.109-.07.125-.151.115s-.092-.066-.083-.148c.012-.109.064-.125.146-.11S-2756.638-1386.988-2756.658-1386.9Zm-.108-1.553c-.012.1-.054.147-.147.13-.083,0-.1-.051-.089-.138s.037-.134.123-.117C-2756.814-1388.567-2756.753-1388.559-2756.766-1388.455Zm-.172.247c.08.013.135.036.113.146-.017.084-.057.123-.137.111s-.1-.048-.091-.137S-2757.027-1388.223-2756.938-1388.208Zm-.03.377c.082.011.1.062.085.144s-.058.117-.132.11c-.1-.009-.1-.073-.09-.165S-2757.036-1387.841-2756.968-1387.832Zm-.121.621c-.091-.014-.081-.083-.072-.159.013-.106.072-.1.139-.089s.12.045.093.124C-2756.945-1387.2-2757.011-1387.2-2757.089-1387.211Zm.1.271c-.019.092-.065.112-.136.1s-.107-.05-.095-.14.044-.12.124-.107S-2756.967-1387.05-2756.989-1386.941Zm-.109-1.549c-.016.092-.052.148-.145.124-.082,0-.1-.056-.09-.141s.048-.14.139-.122C-2757.12-1388.613-2757.082-1388.582-2757.1-1388.49Zm-.167.233c.067.013.127.023.112.126s-.038.155-.137.141c-.079-.011-.116-.049-.091-.127C-2757.372-1388.209-2757.358-1388.274-2757.265-1388.257Zm-.042.374c.094.014.114.072.1.147-.006.118-.061.126-.132.12-.1-.009-.108-.067-.094-.162S-2757.385-1387.894-2757.307-1387.883Zm-.1.635c-.087-.008-.093-.064-.084-.146.011-.1.055-.133.142-.115s.115.046.092.135C-2757.272-1387.269-2757.326-1387.24-2757.41-1387.248Zm.094.241c-.017.124-.084.135-.158.127-.089-.01-.078-.085-.073-.156.007-.119.074-.111.149-.1S-2757.292-1387.077-2757.316-1387.007Zm-.113-1.53c-.016.114-.071.137-.154.122s-.084-.078-.075-.154c.013-.11.07-.12.15-.106S-2757.41-1388.607-2757.429-1388.537Zm-.157.231c.071.014.122.036.1.134s-.048.146-.143.132-.093-.07-.082-.151S-2757.673-1388.324-2757.586-1388.307Zm-.065.375c.1,0,.13.06.116.158s-.055.115-.132.107c-.092-.01-.117-.06-.1-.158C-2757.749-1387.908-2757.726-1387.963-2757.651-1387.931Zm-.075.634c-.1,0-.108-.065-.094-.16s.056-.115.131-.1.117.034.1.133S-2757.629-1387.273-2757.726-1387.3Zm.081.242c-.006.107-.049.148-.14.132s-.1-.062-.089-.146.024-.138.114-.12C-2757.687-1387.176-2757.614-1387.168-2757.645-1387.055Zm-.112-1.524c-.014.1-.066.13-.152.115s-.091-.075-.079-.154.053-.128.119-.1C-2757.778-1388.713-2757.746-1388.666-2757.757-1388.579Zm-.152.229c.075.016.107.058.095.144s-.046.127-.126.118-.114-.035-.1-.13S-2758.007-1388.37-2757.909-1388.35Zm-.042.377c.078.006.1.053.091.141-.014.1-.063.126-.147.115-.1-.014-.1-.082-.084-.169S-2758.019-1387.988-2757.951-1387.972Zm-.106.628c-.074-.013-.111-.044-.1-.137s.047-.152.13-.12c.09,0,.122.037.109.132S-2757.966-1387.329-2758.057-1387.345Zm.087.237c-.013.086-.031.154-.13.138-.069-.012-.117-.034-.1-.129s.037-.156.118-.135C-2758-1387.232-2757.956-1387.2-2757.97-1387.108Zm-.12-1.495c-.013.095-.063.1-.134.1-.1-.009-.1-.078-.09-.164s.058-.118.13-.1C-2758.089-1388.76-2758.078-1388.692-2758.09-1388.6Zm-.149.2c.077.016.107.06.094.146s-.046.129-.128.12-.115-.034-.1-.131S-2758.341-1388.42-2758.239-1388.4Zm-.055.373c.069.014.117.034.106.131s-.049.147-.138.128c-.078,0-.117-.029-.1-.126S-2758.394-1388.047-2758.294-1388.026Zm-.1.631c-.082-.009-.1-.047-.09-.137s.052-.139.142-.121c.075.015.113.05.093.142S-2758.308-1387.385-2758.393-1387.4Zm.092.258c-.013.084-.043.129-.127.118s-.121-.057-.1-.159.062-.118.137-.1S-2758.288-1387.226-2758.3-1387.137Zm-.116-1.533c-.007.083-.038.127-.121.118s-.121-.047-.1-.15c.013-.08.03-.131.116-.12S-2758.4-1388.769-2758.417-1388.671Zm-.159.223c.092,0,.112.065.1.158s-.045.118-.124.109-.12-.052-.1-.152C-2758.681-1388.409-2758.662-1388.471-2758.576-1388.448Zm-.045.371c.09.015.117.061.1.161s-.057.121-.133.1-.119-.028-.1-.128S-2758.724-1388.093-2758.622-1388.076Zm-.1.637c-.081-.012-.107-.051-.09-.141s.03-.139.119-.124.144.031.114.141C-2758.582-1387.449-2758.634-1387.426-2758.721-1387.439Zm.085.271c-.006.1-.056.112-.129.1-.094-.011-.111-.065-.094-.161s.057-.115.132-.106C-2758.634-1387.319-2758.613-1387.261-2758.636-1387.168Zm-.111-1.539c-.009.1-.061.111-.133.1s-.109-.044-.092-.136.033-.135.119-.122S-2758.728-1388.8-2758.747-1388.707Zm-.158.217c.1.007.115.068.1.159,0,.111-.062.106-.13.1s-.115-.037-.1-.135C-2759.013-1388.448-2758.991-1388.5-2758.905-1388.49Zm-.037.368c.077.006.113.048.093.141,0,.1-.047.137-.137.121-.071-.013-.112-.033-.1-.132S-2759.025-1388.128-2758.942-1388.122Zm-.08.633c-.1,0-.131-.05-.116-.15.013-.085.048-.123.128-.114s.123.053.1.154C-2758.92-1387.518-2758.944-1387.462-2759.022-1387.489Zm.058.277c-.014.1-.065.106-.135.1s-.106-.049-.092-.139.046-.151.131-.124C-2758.951-1387.372-2758.951-1387.3-2758.964-1387.212Zm-.11-1.559c-.006.086-.041.127-.122.119s-.122-.018-.107-.12c.013-.085.027-.16.129-.14A.109.109,0,0,1-2759.074-1388.77Zm-.154.233c.089.017.114.078.1.171-.013.109-.081.085-.144.083-.087,0-.1-.057-.086-.141S-2759.309-1388.553-2759.228-1388.537Zm-.063.372c.082.014.134.049.11.158-.006.1-.064.105-.135.1s-.116-.036-.1-.134C-2759.4-1388.126-2759.377-1388.18-2759.291-1388.165Zm-.072.627c-.094,0-.116-.058-.1-.156.011-.077.042-.11.111-.1s.134.039.119.149C-2759.246-1387.557-2759.282-1387.517-2759.363-1387.539Zm.069.278c0,.1-.058.108-.129.1s-.115-.034-.1-.132.062-.137.147-.119S-2759.276-1387.346-2759.293-1387.261Zm-.112-1.534c-.016.094-.067.112-.142.1s-.1-.059-.082-.143.038-.133.123-.119S-2759.389-1388.892-2759.405-1388.8Zm-.154.21c.1.016.122.076.105.171s-.074.1-.14.09c-.1-.008-.1-.074-.087-.164S-2759.619-1388.6-2759.559-1388.586Zm-.055.371c.082.015.128.055.1.159-.006.093-.055.112-.129.1s-.122-.05-.1-.153C-2759.725-1388.188-2759.7-1388.23-2759.614-1388.215Zm-.076.635c-.086,0-.119-.05-.1-.151.013-.081.039-.129.121-.114s.124.053.108.155C-2759.576-1387.6-2759.61-1387.562-2759.69-1387.58Zm.067.291c-.016.112-.085.084-.145.078-.086-.009-.093-.072-.079-.153s.066-.115.138-.1C-2759.61-1387.452-2759.611-1387.376-2759.623-1387.289Zm-.115-1.552c-.015.1-.072.1-.141.09-.09-.011-.086-.073-.075-.151.015-.1.082-.09.136-.1C-2759.725-1388.985-2759.726-1388.917-2759.738-1388.841Zm-.161.205c.077.007.138.031.119.146,0,.075-.031.129-.115.117s-.142-.014-.12-.134C-2760-1388.584-2759.982-1388.643-2759.9-1388.636Zm-.037.372c.086.016.121.067.1.16-.015.125-.088.106-.159.1-.092-.012-.079-.081-.07-.155C-2760.056-1388.255-2760.01-1388.278-2759.936-1388.264Zm-.048.374c.076.013.108.06.091.149s-.044.126-.125.113-.12-.03-.107-.13S-2760.074-1387.906-2759.983-1387.891Zm.035.537c0,.1-.063.107-.133.1s-.114-.043-.1-.139.047-.131.127-.122S-2759.93-1387.452-2759.948-1387.353Zm-.166-1.163c-.018.1-.074.1-.14.088s-.1-.052-.087-.14.069-.1.127-.088C-2760.128-1388.649-2760.1-1388.607-2760.114-1388.517Zm-.182.227c.08.012.141.021.128.124-.01.087-.046.125-.125.112s-.125-.017-.108-.121C-2760.386-1388.253-2760.367-1388.316-2760.3-1388.29Zm-.063.607c-.06-.011-.1-.033-.092-.118s.044-.132.124-.114.117.034.1.131S-2760.287-1387.669-2760.359-1387.682Zm.08.29c-.01.1-.073.089-.138.081-.08-.011-.1-.059-.085-.145.019-.1.082-.087.145-.085C-2760.266-1387.538-2760.264-1387.473-2760.279-1387.392Zm-.083-1.548c-.013.1-.074.1-.137.091-.1-.007-.095-.083-.083-.168s.065-.1.134-.093C-2760.352-1389.1-2760.351-1389.026-2760.362-1388.94Zm-.182.231c.088.008.119.048.106.14s-.066.128-.149.119c-.1-.012-.1-.085-.082-.17S-2760.6-1388.727-2760.544-1388.71Zm-.057.372c.065.013.125.026.1.13a.108.108,0,0,1-.12.121c-.09,0-.122-.047-.11-.147S-2760.678-1388.353-2760.6-1388.338Zm.262,2.059c.015-.1.063-.136.149-.122s.091.077.075.158-.049.117-.126.1S-2760.354-1386.186-2760.339-1386.278Zm.161-.231c-.089-.013-.117-.064-.109-.156s.056-.118.129-.109.119.03.1.125S-2760.073-1386.494-2760.178-1386.509Zm.053-.375c-.072-.009-.124-.028-.112-.127s.048-.143.138-.134.113.061.1.159S-2760.053-1386.865-2760.125-1386.885Zm.114.652c.017-.1.065-.132.15-.118s.091.075.074.156-.053.11-.127.1S-2760.026-1386.139-2760.01-1386.232Zm.136-.241c-.084-.01-.1-.069-.084-.151.02-.115.092-.107.164-.094.093.017.073.094.06.18S-2759.812-1386.466-2759.874-1386.473Zm.052-.368c-.084-.008-.095-.064-.083-.145.017-.107.076-.119.154-.108s.094.07.077.153C-2759.677-1386.823-2759.749-1386.834-2759.822-1386.841Zm.141.663c.014-.1.064-.133.149-.129s.088.073.076.156-.036.122-.121.105C-2759.646-1386.059-2759.7-1386.079-2759.681-1386.177Zm.145-.243c-.07-.015-.113-.037-.1-.134s.068-.13.153-.116c.084-.006.094.048.085.133C-2759.408-1386.436-2759.448-1386.4-2759.536-1386.421Zm.061-.372c-.07-.012-.118-.032-.1-.134s.07-.129.153-.117.1.069.08.154C-2759.348-1386.791-2759.4-1386.78-2759.476-1386.793Zm.125.663c.015-.093.048-.146.143-.133s.1.069.081.151-.034.131-.121.115C-2759.319-1386.01-2759.367-1386.031-2759.351-1386.129Zm.144-.244c-.077-.005-.111-.042-.1-.137s.052-.137.144-.125.1.079.088.169S-2759.137-1386.356-2759.207-1386.373Zm.055-.37c-.075-.015-.11-.046-.095-.14s.051-.15.136-.121c.092,0,.111.053.1.141S-2759.061-1386.725-2759.152-1386.743Zm.131.642c.011-.105.062-.125.146-.11s.094.07.077.151c-.006.1-.065.121-.145.109S-2759.029-1386.025-2759.021-1386.1Zm.15-.219c-.089-.011-.119-.054-.1-.156s.075-.119.155-.105.094.074.075.146C-2758.749-1386.337-2758.792-1386.31-2758.871-1386.32Zm.054-.373c-.092-.011-.117-.059-.1-.16s.059-.113.135-.105c.1.01.118.066.093.162C-2758.691-1386.7-2758.741-1386.683-2758.816-1386.692Zm.123.629c.006-.105.061-.109.131-.1s.118.042.1.133-.027.141-.118.129S-2758.7-1385.968-2758.693-1386.063Zm.156-.212c-.084-.013-.124-.049-.107-.153s.073-.118.153-.105.1.068.079.149S-2758.457-1386.263-2758.538-1386.275Zm.046-.374c-.092-.011-.111-.067-.094-.162s.065-.107.136-.1c.091.013.115.071.093.153C-2758.367-1386.645-2758.423-1386.641-2758.492-1386.649Zm.124.635c.007-.092.049-.117.126-.107s.132.043.1.145c-.009.084-.032.137-.12.123S-2758.375-1385.922-2758.368-1386.014Zm.156-.213c-.091-.013-.115-.061-.1-.161.017-.12.08-.11.156-.1.092.012.09.076.073.153S-2758.133-1386.216-2758.213-1386.227Zm.059-.373c-.088,0-.123-.05-.1-.152.015-.085.051-.12.129-.113.094.008.112.063.1.158S-2758.073-1386.579-2758.153-1386.6Zm.114.626c.016-.1.067-.111.131-.093.085,0,.116.041.1.135s-.045.144-.14.127S-2758.055-1385.88-2758.04-1385.974Zm.148-.206c-.1-.006-.1-.079-.09-.169s.073-.1.141-.091.1.05.091.14S-2757.8-1386.153-2757.892-1386.181Zm.058-.368c-.094-.013-.11-.07-.095-.165s.06-.112.133-.1c.093.013.121.065.09.152C-2757.71-1386.555-2757.759-1386.538-2757.834-1386.549Zm.122.623c.016-.1.071-.106.142-.092s.108.041.092.135-.042.132-.126.117S-2757.729-1385.82-2757.712-1385.926Zm.16-.213c-.086-.016-.12-.063-.1-.165s.076-.1.143-.088.118.046.088.126C-2757.431-1386.161-2757.47-1386.123-2757.552-1386.138Zm.031-.374c-.094,0-.089-.07-.08-.147s.053-.12.13-.107.116.035.1.134S-2757.439-1386.5-2757.521-1386.512Zm.137.639c.017-.116.082-.108.156-.1s.093.07.076.147-.045.126-.125.111S-2757.4-1385.77-2757.384-1385.873Zm.178-.214c-.074-.011-.135-.029-.124-.141s.062-.126.143-.119.115.04.093.129S-2757.117-1386.073-2757.205-1386.087Zm.031-.375c-.09-.012-.111-.071-.095-.166s.076-.1.145-.084.1.055.082.14S-2757.1-1386.451-2757.174-1386.461Zm.118.646c.013-.108.066-.131.148-.109.083,0,.1.053.088.14-.014.1-.056.137-.144.117S-2757.066-1385.728-2757.056-1385.815Zm.172-.222c-.079-.009-.131-.041-.115-.148.012-.082.041-.128.122-.117s.131.039.113.147C-2756.777-1386.076-2756.8-1386.019-2756.884-1386.037Zm.032-.375c-.076-.013-.1-.062-.091-.149s.042-.136.112-.114c.084.008.134.032.121.131S-2756.761-1386.4-2756.852-1386.412Zm.131.627c.012-.079.052-.1.117-.091s.073.071.061.14-.05.1-.114.088S-2756.73-1385.719-2756.721-1385.785Zm.116-.216c-.087-.027-.069-.1-.058-.17a.081.081,0,0,1,.1-.079c.09.011.079.082.07.155S-2756.545-1386-2756.6-1386Zm.067-.368c-.088-.011-.085-.081-.074-.158s.047-.11.115-.1.076.073.065.14S-2756.466-1386.36-2756.538-1386.369Zm.1.638c.013-.094.06-.112.132-.1s.12.033.1.13c0,.095-.052.115-.126.1S-2756.455-1385.634-2756.441-1385.731Zm.136-.245c-.086-.013-.092-.074-.076-.153s.07-.084.128-.076c.077.01.112.052.089.14C-2756.176-1385.96-2756.238-1385.966-2756.3-1385.976Zm.08-.37c-.075,0-.116-.038-.107-.133.008-.078.037-.115.108-.1s.132.01.122.117C-2756.11-1386.379-2756.14-1386.327-2756.225-1386.346Zm.11.665c.014-.1.056-.139.143-.128s.115.045.094.135-.021.143-.112.128C-2756.061-1385.558-2756.131-1385.562-2756.115-1385.681Zm.15-.24c-.076-.011-.108-.05-.094-.142s.065-.135.15-.117.094.077.077.159S-2755.893-1385.911-2755.965-1385.921Zm.068-.375c-.071-.007-.122-.026-.111-.126s.055-.141.141-.128.105.055.092.144S-2755.82-1386.277-2755.9-1386.3Zm.031-.376c-.076,0-.1-.049-.083-.137.016-.116.088-.111.156-.1.087.008.083.079.072.155C-2755.735-1386.657-2755.794-1386.659-2755.865-1386.672Zm.135.663c.016-.1.061-.14.148-.121s.1.071.081.149c-.006.1-.058.122-.132.111S-2755.745-1385.914-2755.73-1386.009Zm.163-.233c-.08-.01-.133-.033-.111-.145.015-.078.035-.135.12-.12s.135.042.114.152C-2755.45-1386.272-2755.486-1386.232-2755.567-1386.242Zm.051-.373c-.087-.009-.124-.048-.1-.151.016-.083.044-.128.126-.113s.129.053.106.157C-2755.395-1386.63-2755.441-1386.607-2755.517-1386.615Zm.057-.372c-.068-.01-.124-.023-.107-.125.013-.086.027-.16.13-.14a.11.11,0,0,1,.1.143C-2755.346-1387.027-2755.376-1386.975-2755.46-1386.987Zm.035-.374c-.088-.01-.094-.069-.086-.149s.044-.132.125-.114.117.068.1.165S-2755.352-1387.353-2755.424-1387.361Zm.066-.371c-.089-.01-.118-.057-.1-.156s.05-.123.128-.11.121.064.1.158S-2755.284-1387.724-2755.358-1387.732Zm.042-.377c-.088-.005-.1-.065-.083-.145s.044-.124.125-.113c.1.013.093.093.091.172C-2755.187-1388.082-2755.258-1388.107-2755.316-1388.109Zm-.027-.489c.011-.079.036-.135.11-.124s.1.04.095.117-.029.135-.115.121C-2755.315-1388.494-2755.354-1388.516-2755.343-1388.6Zm.16,1.124c.014-.091.061-.113.133-.1.088.015.113.074.093.167s-.064.1-.135.1C-2755.187-1387.321-2755.2-1387.384-2755.183-1387.474Zm.169-.207c-.076-.009-.138-.026-.116-.14.014-.075.029-.138.115-.129s.134.04.119.145C-2754.9-1387.725-2754.931-1387.671-2755.014-1387.681Zm.057-.379c-.122,0-.124-.069-.112-.149s.055-.121.133-.106c.108.021.075.111.071.187C-2754.872-1388.022-2754.939-1388.06-2754.958-1388.06Zm.019-.373c-.071-.014-.087-.056-.077-.131s.032-.137.12-.125.108.061.087.141C-2754.816-1388.449-2754.858-1388.417-2754.938-1388.433Zm-.3-.951c0-.037.019-.079.021-.118l.211.03a.008.008,0,0,1,0,0,.853.853,0,0,0-.016.106c-.009.092-.034.152-.135.133S-2755.244-1389.3-2755.237-1389.384Zm-.071.383c.017-.1.079-.092.142-.1.094-.009.1.051.087.14-.006.073-.035.119-.119.107S-2755.327-1388.895-2755.309-1389Zm-.242-.548.219.031-.005.016c-.031.085.025.242-.14.222s-.068-.157-.073-.246C-2755.551-1389.533-2755.55-1389.541-2755.55-1389.548Zm-.083.492c.022-.1.086-.087.15-.077s.082.061.072.134c-.014.1-.068.111-.129.093C-2755.634-1388.915-2755.651-1388.972-2755.634-1389.056Zm-.25-.494c0-.014,0-.029,0-.044l.219.031c0,.008,0,.017-.007.025-.03.086.021.244-.142.219C-2755.951-1389.341-2755.887-1389.461-2755.883-1389.55Zm-.083.459c.008-.1.064-.107.135-.1s.109.05.093.14-.036.139-.122.122S-2755.973-1389-2755.966-1389.091Zm-.2-.5a.367.367,0,0,1,0-.042l.172.024a.291.291,0,0,1-.011.048c-.026.073.014.212-.114.189S-2756.165-1389.513-2756.165-1389.592Zm-.065.474c.006-.063,0-.128.089-.115s.086.06.072.131-.017.131-.1.123S-2756.236-1389.053-2756.229-1389.118Zm.039.261c.082.008.073.073.064.137s-.028.127-.105.11c-.061-.014-.062-.068-.053-.125S-2756.272-1388.865-2756.191-1388.858Zm-.308-.759c0-.019.006-.041.009-.063l.217.03a.323.323,0,0,1-.009.044c-.025.083.007.217-.139.193C-2756.544-1389.432-2756.505-1389.531-2756.5-1389.616Zm-.059.449c.013-.091.052-.124.128-.1.093.006.088.073.075.15s-.049.1-.116.1S-2756.569-1389.083-2756.557-1389.168Zm.076.269c.091.011.088.086.085.153,0,.1-.068.106-.136.094-.085-.009-.092-.069-.082-.15C-2756.6-1388.9-2756.554-1388.907-2756.481-1388.9Zm-.346-.77c0-.019,0-.039.006-.058l.217.031a.365.365,0,0,1-.01.068c-.026.084.005.218-.141.191S-2756.829-1389.58-2756.826-1389.668Zm-.061.466c.011-.076.028-.133.115-.12s.112.044.091.131-.04.134-.12.129S-2756.9-1389.121-2756.887-1389.2Zm.066.252c.072.014.113.045.1.133-.007.107-.067.124-.146.122s-.091-.044-.082-.118S-2756.927-1388.971-2756.821-1388.95Zm-.339-.745c0-.025.008-.051.012-.078l.218.031c-.006.031-.011.061-.017.091-.016.085-.011.19-.137.164S-2757.165-1389.61-2757.16-1389.695Zm-.056.444c.011-.076.027-.134.116-.122s.112.047.09.132-.028.141-.116.13S-2757.228-1389.166-2757.216-1389.251Zm.092.253c.084.015.1.069.079.151-.014.1-.07.124-.152.108s-.083-.079-.075-.155C-2757.262-1389.006-2757.2-1389.011-2757.124-1389Zm-.371-.675c0-.045.011-.089.016-.133v-.013l.217.03c-.01.048-.013.1-.023.144-.014.066-.031.118-.108.111S-2757.5-1389.589-2757.495-1389.673Zm-.047.355c.015-.1.072-.1.141-.094s.069.075.062.138c-.011.084-.044.135-.126.112S-2757.553-1389.241-2757.542-1389.318Zm.072.269c.071.01.117.035.1.13s-.04.155-.129.134c-.08,0-.119-.038-.107-.131S-2757.562-1389.062-2757.47-1389.049Zm-.333-.815.212.03c0,.007,0,.015,0,.022-.008.035-.013.071-.017.106-.01.081-.037.13-.123.125s-.084-.07-.087-.145A1.252,1.252,0,0,1-2757.8-1389.865Zm-.074.534c.012-.072.018-.145.112-.135.077.008.116.045.1.137s-.036.133-.121.119C-2757.855-1389.221-2757.889-1389.251-2757.876-1389.331Zm.092.24a.1.1,0,0,1,.089.108c-.024.137-.073.157-.147.148-.1-.012-.1-.083-.085-.171S-2757.853-1389.1-2757.785-1389.091Zm-.35-.786a.146.146,0,0,1,0-.034l.216.03a.16.16,0,0,1-.007.022c-.036.082.034.246-.131.23S-2758.118-1389.79-2758.135-1389.877Zm-.072.495c.015-.09.038-.15.136-.131s.077.087.081.157c.006.1-.043.121-.12.1S-2758.222-1389.286-2758.206-1389.382Zm.066.237c.088.012.124.057.108.156s-.043.124-.124.114-.127-.044-.106-.15C-2758.246-1389.1-2758.226-1389.156-2758.14-1389.145Zm-.323-.747c0-.02,0-.042.008-.065l.206.029a.267.267,0,0,1-.01.064c-.027.072.015.2-.119.188C-2758.528-1389.686-2758.468-1389.8-2758.463-1389.892Zm-.069.452c.014-.075.028-.134.118-.125s.106.081.1.165c0,.1-.058.116-.124.1C-2758.523-1389.306-2758.55-1389.351-2758.533-1389.44Zm.065.245c.088.012.124.058.107.157s-.044.122-.125.113-.126-.046-.1-.151C-2758.575-1389.154-2758.554-1389.207-2758.468-1389.2Zm-.321-.762a.253.253,0,0,1,0-.045l.206.029a.228.228,0,0,1-.009.048c-.028.079.016.22-.134.2S-2758.786-1389.873-2758.789-1389.957Zm-.078.482c.013-.1.045-.149.139-.13.074.015.109.059.1.151s-.048.12-.127.106S-2758.881-1389.372-2758.867-1389.475Zm.065.24c.084.01.127.052.114.155s-.059.115-.134.1-.123-.033-.1-.129C-2758.913-1389.189-2758.888-1389.245-2758.8-1389.235Zm-.317-.767a.208.208,0,0,1,.005-.047l.207.029a.228.228,0,0,1-.01.05c-.029.08.014.221-.134.2S-2759.115-1389.917-2759.119-1390Zm-.077.483c.013-.087.033-.153.131-.138s.118.062.1.16-.056.12-.132.1S-2759.21-1389.421-2759.2-1389.518Zm.089.237c.075.016.1.066.09.148-.012.107-.07.125-.15.109s-.094-.06-.083-.142C-2759.237-1389.265-2759.192-1389.3-2759.106-1389.281Zm-.342-.764a.251.251,0,0,1,.006-.05l.206.029a.2.2,0,0,1-.008.039c-.029.079.019.22-.129.205S-2759.448-1389.959-2759.448-1390.045Zm-.071.441c.016-.09.061-.114.134-.1.088.015.113.074.093.167s-.066.1-.136.1C-2759.524-1389.452-2759.536-1389.511-2759.52-1389.6Zm.066.271c.085.008.121.057.107.156s-.052.118-.129.109-.123-.05-.1-.152C-2759.563-1389.3-2759.534-1389.35-2759.454-1389.333Zm-.337-.671c.009-.045.014-.091.02-.137l.2.029a.315.315,0,0,1-.009.056.374.374,0,0,0-.012.079c0,.073-.029.117-.1.108S-2759.809-1389.908-2759.791-1390Zm-.058.365c.015-.082.055-.1.12-.089s.123.034.1.126-.062.118-.137.108S-2759.865-1389.55-2759.848-1389.639Zm.068.275c.082,0,.115.035.1.126s-.04.131-.123.119-.117-.032-.107-.129S-2759.853-1389.363-2759.78-1389.364Zm-.334-.724c0-.033.009-.066.014-.1l.206.029a.8.8,0,0,0-.013.1c0,.1-.032.154-.129.145C-2760.149-1389.922-2760.124-1390.009-2760.114-1390.088Zm-.034.391c.009-.09.048-.122.128-.108s.118.043.1.139c-.011.121-.091.1-.161.1C-2760.17-1389.568-2760.155-1389.633-2760.149-1389.7Zm-.051.368c.008-.1.052-.122.117-.1.09.008.12.052.1.142s-.076.1-.144.088S-2760.205-1389.257-2760.2-1389.329Zm.037.3c.074.01.116.045.1.135s-.067.106-.138.1c-.088-.011-.091-.069-.078-.149S-2760.224-1389.042-2760.163-1389.033Zm-.284-1.08c.006-.04.011-.08.017-.121l.207.029c0,.036-.006.071-.01.107-.01.089-.033.156-.135.139S-2760.459-1390.035-2760.447-1390.113Zm-.033.367c.012-.108.066-.123.147-.108s.1.065.085.147c-.017.1-.07.13-.152.111S-2760.489-1389.666-2760.48-1389.746Zm-.051.374c.013-.087.041-.128.124-.113s.12.039.1.135c-.01.08-.038.135-.121.131S-2760.546-1389.268-2760.53-1389.372Zm-.1-.891.088.012a.291.291,0,0,1-.115.257C-2760.652-1390.094-2760.643-1390.184-2760.635-1390.263Zm-.038.393a.068.068,0,0,1,.045.041.132.132,0,0,1-.063.171C-2760.684-1389.731-2760.678-1389.8-2760.672-1389.869Zm-.034.426a.1.1,0,0,1-.01.151Zm-.025.38c.014.039.014.117,0,.128l-.006.006C-2760.736-1388.975-2760.734-1389.02-2760.731-1389.064Zm-.048,1.2c.011-.1.06-.114.133-.1s.114.049.091.141c-.006.1-.073.1-.137.1C-2760.783-1387.72-2760.789-1387.781-2760.779-1387.863Zm-.011.284a.122.122,0,0,1,.09-.012c.069.011.123.032.1.124-.005.1-.057.119-.129.108a.189.189,0,0,1-.058-.019Q-2760.791-1387.478-2760.79-1387.579Zm0,.363c.063,0,.133-.019.133.1,0,.1-.041.145-.131.128C-2760.792-1387.062-2760.793-1387.138-2760.793-1387.216Zm.025.882c0-.03,0-.061-.005-.092A.121.121,0,0,1-2760.768-1386.333Zm0-.293-.013,0c0-.071-.005-.142-.007-.216A.113.113,0,0,1-2760.769-1386.626Zm.151,1.181a1.449,1.449,0,0,1-.08-.286.146.146,0,0,1,.153.079A.209.209,0,0,1-2760.619-1385.446Zm.127-.487c-.008.077-.032.131-.117.119-.057-.008-.1-.023-.115-.073v-.01a.174.174,0,0,1,0-.06c.016-.1.061-.134.147-.121S-2760.475-1386.018-2760.491-1385.933Zm-.073-.254c-.091-.014-.121-.062-.1-.162s.068-.116.145-.1.088.069.079.15S-2760.481-1386.175-2760.564-1386.187Zm.135.948a.269.269,0,0,0,.028-.023.083.083,0,0,1,.123.075l0,.021A1.565,1.565,0,0,1-2760.429-1385.239Zm.209-.258c-.015.088-.053.124-.116.1-.085-.007-.13-.037-.118-.13s.049-.144.138-.134S-2760.2-1385.593-2760.22-1385.5Zm.058-.385c-.008.077-.032.131-.117.119s-.134-.033-.116-.143.062-.134.147-.121S-2760.146-1385.968-2760.162-1385.883Zm.21.78a.424.424,0,0,0-.015.049c-.068-.022-.131-.044-.19-.066.005-.013.01-.023.016-.039.026-.068.072-.06.119-.053A.077.077,0,0,1-2759.953-1385.1Zm.063-.368c-.006.1-.044.135-.125.119s-.124-.026-.11-.127.055-.142.145-.129A.1.1,0,0,1-2759.89-1385.47Zm-.061-.253c-.062-.012-.129-.014-.118-.119s.045-.151.138-.139c.073.01.119.042.1.129S-2759.865-1385.705-2759.951-1385.723Zm.333.666a.255.255,0,0,1-.028.1l-.182-.052a.187.187,0,0,1,0-.052c.014-.071.02-.146.113-.128C-2759.636-1385.189-2759.6-1385.147-2759.618-1385.057Zm.059-.368c-.011.1-.047.141-.138.122-.073-.015-.112-.045-.1-.137s.052-.148.144-.125C-2759.568-1385.562-2759.55-1385.51-2759.559-1385.425Zm-.082-.252c-.075-.006-.112-.043-.1-.135s.06-.136.147-.126c.1.011.094.086.083.17S-2759.573-1385.661-2759.64-1385.677Zm.348.694c-.006.059-.027.089-.06.1l-.14-.035c-.021-.035-.008-.091-.005-.138.005-.109.074-.09.136-.082C-2759.27-1385.126-2759.285-1385.055-2759.292-1384.983Zm.059-.386c-.007.09-.039.131-.122.119s-.128-.044-.107-.151.066-.13.152-.115S-2759.218-1385.443-2759.233-1385.369Zm-.087-.258c-.082-.009-.1-.061-.085-.144s.062-.139.143-.116c.112.013.089.1.081.177C-2759.193-1385.6-2759.257-1385.62-2759.321-1385.627Zm.364.659c-.012.071-.018.14-.11.134s-.124-.055-.118-.149.047-.127.124-.113S-2758.941-1385.062-2758.957-1384.968Zm.055-.352c-.013.084-.045.133-.125.111-.077-.006-.117-.045-.107-.135s.057-.137.146-.123S-2758.889-1385.4-2758.9-1385.32Zm-.068-.259c-.069-.008-.127-.017-.111-.121s.04-.153.137-.141c.08.01.111.052.092.14C-2758.852-1385.611-2758.886-1385.569-2758.97-1385.579Zm.339.675c-.013.08-.038.131-.123.116a.107.107,0,0,1-.1-.135c.011-.1.057-.142.146-.123C-2758.623-1385.047-2758.618-1384.984-2758.631-1384.9Zm.055-.354c-.009.1-.066.113-.147.1s-.092-.075-.079-.153c.017-.107.083-.11.158-.1C-2758.549-1385.409-2758.564-1385.338-2758.576-1385.258Zm-.062-.271c-.086-.012-.126-.054-.109-.155s.059-.115.135-.108.111.048.089.134S-2758.547-1385.516-2758.637-1385.529Zm.337.674c-.014.1-.057.134-.145.116s-.094-.094-.081-.178c.016-.1.078-.094.146-.081C-2758.3-1385-2758.289-1384.936-2758.3-1384.855Zm.054-.364c-.009.086-.046.122-.126.111s-.112-.07-.1-.164c.014-.116.079-.11.155-.1S-2758.231-1385.295-2758.247-1385.219Zm-.055-.26c-.086-.008-.13-.047-.116-.152.011-.084.041-.136.125-.115.073,0,.122.03.1.129C-2758.207-1385.549-2758.2-1385.47-2758.3-1385.479Zm.331.669c-.014.1-.069.123-.149.115s-.091-.071-.084-.147c.01-.106.065-.13.146-.107C-2757.974-1384.947-2757.958-1384.895-2757.97-1384.811Zm.054-.37c-.011.106-.069.128-.15.116s-.087-.078-.08-.153c.01-.11.07-.117.149-.105S-2757.9-1385.259-2757.916-1385.181Zm-.082-.252c-.1-.016-.1-.088-.087-.176s.077-.094.144-.086c.093.011.088.077.073.154S-2757.918-1385.419-2758-1385.432Zm.358.645c-.01.1-.035.151-.121.141s-.127-.052-.114-.155.059-.115.134-.1S-2757.612-1384.876-2757.64-1384.787Zm.054-.347c-.009.088-.047.128-.127.115s-.118-.066-.1-.163.07-.1.139-.092S-2757.569-1385.218-2757.586-1385.134Zm-.067-.256c-.085-.012-.121-.058-.107-.157s.061-.111.133-.1.123.035.093.119C-2757.543-1385.434-2757.567-1385.378-2757.653-1385.391Zm.339.685c-.016.084-.051.126-.126.109-.09-.01-.119-.064-.1-.161s.059-.112.133-.1C-2757.322-1384.853-2757.295-1384.8-2757.313-1384.706Zm.053-.385c0,.094-.042.134-.124.122s-.118-.067-.1-.166.067-.107.139-.1S-2757.247-1385.167-2757.26-1385.091Zm-.08-.252c-.094-.018-.1-.086-.086-.176s.08-.092.146-.083c.092.012.085.08.07.157C-2757.217-1385.354-2757.264-1385.328-2757.34-1385.343Zm.358.653c-.01.093-.032.154-.117.145s-.131-.041-.119-.146.056-.136.143-.119C-2757-1384.8-2756.957-1384.769-2756.981-1384.69Zm.049-.369c-.007.093-.027.153-.116.141s-.125-.056-.111-.158.056-.12.133-.108S-2756.905-1385.143-2756.933-1385.059Zm-.052-.233c-.084-.008-.127-.047-.116-.151.009-.086.034-.137.107-.112.082.006.137.025.118.126C-2756.89-1385.359-2756.892-1385.283-2756.985-1385.293Zm.284.65c-.009.063-.021.122-.1.113s-.1-.043-.085-.119.029-.117.1-.112S-2756.687-1384.719-2756.7-1384.643Zm.045-.344c-.008.063-.038.093-.1.084s-.083-.062-.072-.133.049-.108.116-.094C-2756.627-1385.115-2756.649-1385.047-2756.656-1384.987Zm-.047-.291c-.068-.016-.078-.068-.072-.135s.047-.1.111-.091.078.061.068.129S-2756.632-1385.261-2756.7-1385.278Zm.33.7c-.011.1-.063.11-.135.1s-.111-.049-.1-.14.081-.121.158-.116S-2756.365-1384.653-2756.373-1384.579Zm.049-.377c-.006.1-.055.121-.128.1s-.107-.057-.093-.144c.02-.117.1-.1.168-.1C-2756.289-1385.093-2756.32-1385.015-2756.323-1384.957Zm-.061-.272c-.086-.009-.126-.039-.113-.134.017-.118.085-.1.156-.1.1,0,.082.067.074.138C-2756.279-1385.226-2756.328-1385.208-2756.385-1385.228Zm.342.672c-.009.079-.022.141-.113.129s-.139-.032-.119-.146c.015-.083.051-.131.135-.119S-2756.033-1384.648-2756.043-1384.557Zm.051-.358c-.012.085-.041.127-.125.114s-.12-.063-.1-.162.067-.116.139-.1C-2755.987-1385.057-2755.98-1385-2755.991-1384.915Zm-.063-.259c-.076-.013-.135-.029-.116-.143s.066-.129.149-.119.1.06.086.145S-2755.968-1385.159-2756.054-1385.174Zm.337.672a.2.2,0,0,1-.028.09.709.709,0,0,1-.125.02c-.05-.011-.087-.031-.077-.114s.046-.151.142-.136C-2755.729-1384.638-2755.706-1384.59-2755.718-1384.5Zm.055-.357c-.014.1-.064.111-.134.1a.093.093,0,0,1-.092-.132c0-.1.046-.135.124-.129S-2755.648-1384.96-2755.663-1384.859Zm.052-.356c-.019.122-.095.094-.162.082-.088-.016-.077-.088-.062-.161.023-.113.1-.1.166-.085C-2755.578-1385.362-2755.6-1385.284-2755.611-1385.216Zm-.07-.286c-.074-.007-.117-.037-.1-.134s.063-.134.148-.117.094.067.083.152S-2755.611-1385.483-2755.681-1385.5Zm.137.866a.7.7,0,0,0-.008-.167c-.012-.071-.017-.151.083-.15.024,0,.048,0,.071,0A2.952,2.952,0,0,1-2755.544-1384.635Zm.193-.436c-.067-.031-.188.014-.16-.149.011-.069.036-.109.106-.12a.1.1,0,0,1,.127.071C-2755.3-1385.2-2755.328-1385.134-2755.352-1385.071Zm.127-.47c-.014.109-.077.092-.146.081s-.1-.049-.085-.138.057-.122.133-.111C-2755.233-1385.7-2755.213-1385.635-2755.225-1385.541Zm.056-.4c-.01.082-.035.13-.12.118s-.134-.033-.111-.145c.017-.084.054-.125.086-.119C-2755.2-1386.072-2755.157-1386.036-2755.168-1385.944Zm.054-.371c-.005.092-.043.127-.122.116s-.136-.021-.113-.137c.016-.077.034-.135.119-.12S-2755.093-1386.421-2755.115-1386.316Zm.054-.353c-.014.128-.094.1-.16.094-.1-.005-.076-.081-.068-.152.011-.093.058-.115.131-.1S-2755.036-1386.763-2755.061-1386.668Zm-.1-.274c-.112-.014-.08-.1-.066-.179.018-.1.084-.09.147-.073a.1.1,0,0,1,.076.109C-2755.032-1386.928-2755.1-1386.934-2755.161-1386.942Zm.144.831c.006-.051.013-.1.016-.152.007-.129.1-.262.052-.425-.023-.074.062-.064.111-.082C-2754.9-1386.543-2754.957-1386.321-2755.017-1386.111Zm.21-.781-.02-.007c-.067-.018-.089-.048-.079-.126s.053-.122.13-.111a.107.107,0,0,0,.031,0Q-2754.775-1387.013-2754.806-1386.892Zm.093-.369a.188.188,0,0,0-.046-.01c-.077-.009-.11-.045-.093-.14s.072-.105.141-.094a.311.311,0,0,0,.056.005Q-2754.684-1387.38-2754.714-1387.261Zm.1-.408c-.027.029-.068.026-.112.02-.076-.011-.078-.066-.067-.134s.049-.1.116-.094.087.033.093.079Zm.077-.447c-.007.107-.065.107-.134.1s-.078-.065-.069-.133c.011-.085.046-.127.126-.113S-2754.519-1388.193-2754.538-1388.117Zm.061-.379c-.012.087-.046.129-.125.106-.1,0-.086-.068-.086-.142,0-.1.049-.117.122-.108S-2754.465-1388.582-2754.478-1388.5Zm.055-.354c-.016.1-.074.1-.141.094-.083-.006-.1-.06-.09-.145s.057-.123.135-.115C-2754.423-1389.006-2754.406-1388.947-2754.422-1388.851Zm.06-.431c-.017.078-.008.169-.119.154-.059-.008-.111-.023-.1-.11.006-.057.014-.115.018-.172l.209.029A.851.851,0,0,1-2754.363-1389.282Zm-8.455,8.244,2.3,5.543a1.041,1.041,0,0,0-.23.153l-4.241-4.241A7.045,7.045,0,0,1-2762.817-1381.038Zm-2.268,1.549,4.241,4.24a1.043,1.043,0,0,0-.153.23l-5.543-2.3A7.045,7.045,0,0,1-2765.085-1379.489Zm-1.506,2.3,5.543,2.3a1.027,1.027,0,0,0-.054.271h-6A7.019,7.019,0,0,1-2766.591-1377.192Zm-.509,2.7h6a1.049,1.049,0,0,0,.054.271l-5.543,2.3A7.014,7.014,0,0,1-2767.1-1374.494Zm.559,2.689,5.543-2.3a1.031,1.031,0,0,0,.153.23l-4.241,4.241A7.053,7.053,0,0,1-2766.541-1371.8Zm1.549,2.268,4.24-4.24a1.045,1.045,0,0,0,.23.153l-2.3,5.543A7.043,7.043,0,0,1-2764.992-1369.537Zm4.863,2.015a7.017,7.017,0,0,1-2.567-.509l2.3-5.543a1.043,1.043,0,0,0,.271.055Zm0-8.077a1.046,1.046,0,0,0-.271.054l-2.3-5.543a7.015,7.015,0,0,1,2.567-.509Zm3.1-5.311c-.108.285-.191.524-.247.683a22.158,22.158,0,0,1-.77,2.177c-.209.4-1.146,1.964-1.517,2.58-.014-.008-.027-.017-.041-.024l2.3-5.543C-2757.214-1381-2757.121-1380.955-2757.029-1380.911Zm-2.968-.686a7.017,7.017,0,0,1,2.567.509l-2.3,5.543a1.026,1.026,0,0,0-.271-.055Zm0,14.074v-6a1.044,1.044,0,0,0,.271-.054l2.3,5.543A7.014,7.014,0,0,1-2760-1367.522Zm2.689-.559-2.3-5.543a1.053,1.053,0,0,0,.23-.153l4.241,4.241A7.045,7.045,0,0,1-2757.309-1368.081Zm2.268-1.549-4.24-4.24a1.034,1.034,0,0,0,.153-.23l5.543,2.3A7.042,7.042,0,0,1-2755.041-1369.63Zm1.506-2.3-5.543-2.3a1.046,1.046,0,0,0,.054-.271h6A7.013,7.013,0,0,1-2753.535-1371.926Zm.509-2.7h-6s.2-.191.494-.5l4.995-2.069A7.014,7.014,0,0,1-2753.026-1374.625Zm-.559-2.689-4.728,1.958a11.462,11.462,0,0,0,1.3-1.682c.167-.275.4-.678.673-1.151l1.3-1.3A7.054,7.054,0,0,1-2753.585-1377.314Zm-1.549-2.268-.968.968c.218-.391.447-.813.67-1.242C-2755.33-1379.767-2755.23-1379.676-2755.133-1379.582Zm32.635,4.957h-5.7a1.244,1.244,0,0,0-.107-.373l5.3-2.194A7.014,7.014,0,0,1-2722.5-1374.625Zm-6.662,1.438-.309.053v-.076h.025a1.266,1.266,0,0,0,.276-.031Zm-6.934,1.181a6.953,6.953,0,0,1-.345-1.185l4.405-.4-3.681,1.525Zm-3.391-2.013a2.6,2.6,0,0,0-.566-1.148l2.329-.067q-.027.335-.028.675c0,.127,0,.254.009.38Zm-9.533-8.273c.249.5.875,1.534,1.536,2.605l-2.329-2.6Q-2749.41-1382.3-2749.018-1382.293Zm6.981,6.208a2.621,2.621,0,0,0-.55.059c.216-.26.475-.717.759-1.134l.058.077a.206.206,0,0,0,.289.039l.728-.553-.492,1.636A2.607,2.607,0,0,0-2742.036-1376.085Zm-2.753-6.78a10.369,10.369,0,0,1,2.377,1.877.3.3,0,0,1,.021.1,12.215,12.215,0,0,0-2.974-1.463A4.4,4.4,0,0,0-2744.789-1382.865Zm2.34,2.742a12.081,12.081,0,0,1-.328,1.612c-.12.368-.413,1.234-.554,1.778a29.265,29.265,0,0,0-1.1-2.838c-.282-.586-.87-1.636-1.163-2.153A11.684,11.684,0,0,1-2742.449-1380.123Zm7.93.672,3.68,3.872-.92.026-4.254-1.762a7.045,7.045,0,0,1,1.456-2.175Zm4.046,4.257a1.333,1.333,0,0,0-.085.139l-.869-.36.724-.021Zm-1.609-.35-4.437.127a7.006,7.006,0,0,1,.456-1.777Zm.332.137,1.136.471c-.014.034-.026.069-.037.1l-2.229.2h-3.693c0-.217.014-.431.036-.643Zm-4.823.912h2.255l-2.248.206C-2736.568-1374.356-2736.572-1374.425-2736.573-1374.494Zm4.981.857,1.122-.1.009.012-.918.918-3.751.639Zm1.215.012a1.261,1.261,0,0,0,.286.235l-.161.388-.9.153Zm.4.3a1.242,1.242,0,0,0,.373.107v.108l-.5.085Zm6.917-3.986-5.309,2.2a1.263,1.263,0,0,0-.235-.286l4.088-4.088A7.051,7.051,0,0,1-2723.057-1377.314Zm-1.549-2.268-4.1,4.1a1.252,1.252,0,0,0-.309-.165l2.231-5.388A7.045,7.045,0,0,1-2724.606-1379.582Zm-2.3-1.506-2.236,5.4a1.261,1.261,0,0,0-.306-.039h-.024v-5.87A7.017,7.017,0,0,1-2726.9-1381.088Zm-2.7-.509v5.879a1.26,1.26,0,0,0-.309.079l-2.258-5.45A7.015,7.015,0,0,1-2729.6-1381.6Zm-2.689.559,2.183,5.269-3.963-4.17A7.03,7.03,0,0,1-2732.29-1381.038Zm-3.078.695a8.149,8.149,0,0,0-2.341,4.961l-2.473.071a2.626,2.626,0,0,0-.545-.422l.1.029.775-2.576.938-.713a.206.206,0,0,0,.039-.289l-.157-.207a.206.206,0,0,0-.289-.039l-.2.153.062-.207c.1-.136.162-.24.149-.289-.007-.027-.018-.062-.032-.1l1.041-3.461Zm-3.8-6.46a2.231,2.231,0,0,0,.479.138c.055.009.305.012.66.005l-.388,1.289a.175.175,0,0,0-.211.128.174.174,0,0,0,.11.206l-1.269,4.219a2.836,2.836,0,0,0-.357-.423,28.168,28.168,0,0,1-2.6-2.678C-2742.725-1384.107-2739.284-1386.653-2739.165-1386.8Zm-14.22-7.044a.639.639,0,0,0-.067,0,.239.239,0,0,1-.008-.046,18.408,18.408,0,0,1,1.869-1.186,1.6,1.6,0,0,1,.379,0c0,.138,0,.268.007.372-.658.332-1.531.8-1.836.958A.6.6,0,0,0-2753.385-1393.847Zm.8,4.192-.1-.031a10.648,10.648,0,0,0,.486-2.044,3.005,3.005,0,0,0-.737-1.25.511.511,0,0,0,.123-.3c.667-.355,1.619-.854,2.149-1.115a5,5,0,0,0,1.093-.017,1.91,1.91,0,0,0,.2-.2c.3,0,.641.005.953.016.247-.007.334-.195.234-.32a.193.193,0,0,1,.087-.3,11.921,11.921,0,0,1,1.3-.038s3.762.2,3.994.135a1.134,1.134,0,0,0,.364-.178c.012,0,1.016.047,1.047.041a14.2,14.2,0,0,1,.538,2.374,13,13,0,0,1-.222,1.348h0c-.131.281-.066.328-.488.4a19.876,19.876,0,0,1-2.055-.066c-.263.009-.326.12-.326.12a18.317,18.317,0,0,0-4.166.09c-2.277.313-2.2,1.342-2.224,1.58a2.164,2.164,0,0,0,.513,1.8c.252.228.677.673,1.1,1.129l-.083-.059a15.226,15.226,0,0,0-4.1-2.114c.053-.3.08-.473.08-.473l.063.015a.284.284,0,0,0,.358-.184A.285.285,0,0,0-2752.586-1389.655Zm-.674,2.758c.093-.4.171-.782.235-1.107a15.189,15.189,0,0,1,5.332,3.215c-.23.226-.561.556-.8.817a2.585,2.585,0,0,0-.593,1.015q-.634-.009-1.29.04l-3.026-3.376C-2753.356-1386.483-2753.309-1386.683-2753.26-1386.9Zm12.526,15.68a2.612,2.612,0,0,0,1.244-1.7l1.872-.172a8.149,8.149,0,0,0,.339,1.279Zm4.72-.588.272-.113,4.183-.712-3,3A7.054,7.054,0,0,1-2736.014-1371.8Zm1.549,2.268,3.131-3.131,1.015-.173-1.972,4.76A7.043,7.043,0,0,1-2734.465-1369.537Zm2.3,1.506,2-4.836.563-.1v5.441A7.018,7.018,0,0,1-2732.168-1368.031Zm2.7.509v-5.463l.476-.081,0-.017,2.093,5.053A7.012,7.012,0,0,1-2729.469-1367.522Zm2.689-.559-2.167-5.231a1.255,1.255,0,0,0,.344-.222l4,4A7.044,7.044,0,0,1-2726.781-1368.081Zm2.268-1.549-4-4a1.254,1.254,0,0,0,.222-.344l5.231,2.167A7.046,7.046,0,0,1-2724.513-1369.63Zm1.506-2.3-5.235-2.168a1.261,1.261,0,0,0,.056-.374c0-.008,0-.016,0-.024h5.688A7.013,7.013,0,0,1-2723.007-1371.926Z" transform="translate(2768.277 1408.575)" fill="#ffb81a"/>
</svg>
