<svg xmlns="http://www.w3.org/2000/svg" width="281.672" height="140.899" viewBox="0 0 281.672 140.899">
  <g id="edificioazul" transform="translate(0)">
    <rect id="Retângulo_200" data-name="Retângulo 200" width="276.649" height="60.312" transform="translate(1.742 73.42)" fill="#424f66"/>
    <path id="Caminho_1986" data-name="Caminho 1986" d="M-735.766,766.447h-74.3V755.179h2.006v-2.961h-2.006v-20.51h2.006v-2.961h-33.7V724.6h2.726V721.64h-12.46c-3.482-5.858-13.406-10.086-25.112-10.086s-21.63,4.228-25.112,10.086h-12.461V724.6h2.727v4.145h-33.7v2.961h2.007v20.51h-2.007v2.961h2.007v11.268h-74.3v2.962h2.512v83.045h8.1V816.534a21.692,21.692,0,0,1,21.63-21.753,21.691,21.691,0,0,1,21.63,21.753v35.919h6.64V816.575a21.732,21.732,0,0,1,21.67-21.793h34.143a21.732,21.732,0,0,1,21.67,21.793v35.878h7.18V816.575a21.732,21.732,0,0,1,21.67-21.793h34.143a21.732,21.732,0,0,1,21.67,21.793v35.878h6.64V816.534a21.691,21.691,0,0,1,21.63-21.753h0a21.691,21.691,0,0,1,21.629,21.753v35.919h6.609V769.408h2.511Z" transform="translate(1017.438 -711.554)" fill="#304057"/>
  </g>
</svg>
